HIERARCHY
ROOT Hips
{
  OFFSET -187.679 86.5976 -156.378
  CHANNELS 6 Xposition Yposition Zposition Zrotation Xrotation Yrotation
  JOINT LeftUpLeg
  {
    OFFSET 8.64259 1.95398 -2.38835
    CHANNELS 3 Zrotation Xrotation Yrotation
    JOINT LeftLeg
    {
      OFFSET 43.7702 0 0
      CHANNELS 3 Zrotation Xrotation Yrotation
      JOINT LeftFoot
      {
        OFFSET 40.6238 0 0
        CHANNELS 3 Zrotation Xrotation Yrotation
        JOINT LeftToeBase
        {
          OFFSET 12.7242 0 0
          CHANNELS 3 Zrotation Xrotation Yrotation
          End Site
          {
            OFFSET 0 0 0
          }
        }
      }
    }
  }
  JOINT RightUpLeg
  {
    OFFSET -8.2249 1.95398 -2.59336
    CHANNELS 3 Zrotation Xrotation Yrotation
    JOINT RightLeg
    {
      OFFSET 43.5653 0 0
      CHANNELS 3 Zrotation Xrotation Yrotation
      JOINT RightFoot
      {
        OFFSET 40.6238 0 0
        CHANNELS 3 Zrotation Xrotation Yrotation
        JOINT RightToeBase
        {
          OFFSET 12.7242 0 0
          CHANNELS 3 Zrotation Xrotation Yrotation
          End Site
          {
            OFFSET 0 0 0
          }
        }
      }
    }
  }
  JOINT Spine
  {
    OFFSET 0.165834 0.87714 6.61349
    CHANNELS 3 Zrotation Xrotation Yrotation
    JOINT Spine1
    {
      OFFSET 7.38963 1.71661e-005 0
      CHANNELS 3 Zrotation Xrotation Yrotation
      JOINT Spine2
      {
        OFFSET 11.9445 1.14441e-005 0
        CHANNELS 3 Zrotation Xrotation Yrotation
        JOINT Spine3
        {
          OFFSET 14.7254 4.19617e-005 0
          CHANNELS 3 Zrotation Xrotation Yrotation
          JOINT Spine4
          {
            OFFSET 10.9679 0 0
            CHANNELS 3 Zrotation Xrotation Yrotation
            JOINT RightShoulder
            {
              OFFSET 2.46616 -1.6653 3.69651
              CHANNELS 3 Zrotation Xrotation Yrotation
              JOINT RightArm
              {
                OFFSET 13.0012 0 0
                CHANNELS 3 Zrotation Xrotation Yrotation
                JOINT RightForeArm
                {
                  OFFSET 28.7848 1.52588e-005 0
                  CHANNELS 3 Zrotation Xrotation Yrotation
                  JOINT RightHand
                  {
                    OFFSET 26.5688 1.52588e-005 0
                    CHANNELS 3 Zrotation Xrotation Yrotation
                    End Site
                    {
                      OFFSET 0 0 0
                    }
                  }
                }
              }
            }
            JOINT LeftShoulder
            {
              OFFSET 2.38034 -1.29275 -3.7523
              CHANNELS 3 Zrotation Xrotation Yrotation
              JOINT LeftArm
              {
                OFFSET 16.3182 6.10352e-005 0
                CHANNELS 3 Zrotation Xrotation Yrotation
                JOINT LeftForeArm
                {
                  OFFSET 27.0901 0 0
                  CHANNELS 3 Zrotation Xrotation Yrotation
                  JOINT LeftHand
                  {
                    OFFSET 24.5451 1.52588e-005 0
                    CHANNELS 3 Zrotation Xrotation Yrotation
                    End Site
                    {
                      OFFSET 0 0 0
                    }
                  }
                }
              }
            }
            JOINT Neck
            {
              OFFSET 5.0226 -0.0266342 0
              CHANNELS 3 Zrotation Xrotation Yrotation
              JOINT Head
              {
                OFFSET 6.69363 2.86102e-005 0
                CHANNELS 3 Zrotation Xrotation Yrotation
                End Site
                {
                  OFFSET 0 0 0
                }
              }
            }
          }
        }
      }
    }
  }
}
MOTION
Frames:	10
Frame Time:	0.0416667
-302.964 89.8857 -255.671 -111.717 54.0804 -76.4789 -171.879 21.5444 86.9193 -62.4451 22.1425 2.41202 76.6058 9.79828 4.73833 19.915 -2.09454 -3.37416 172.872 18.7806 80.122 -91.8787 8.83789 -4.9152 70.1049 -4.37769 -2.53964 20.0702 -2.90527 4.12399 -0.40264 7.98061 -89.589 10.9144 -0.611475 0.875366 -0.756742 -0.572332 0.901408 -23.2916 -0.846304 0.651128 -3.27893 -0.846271 0.651127 92.1157 -45.0251 -98.4053 21.837 1.84363 0.806376 -56.4482 22.2466 -108.632 12.9604 0.386975 -1.43529 -87.8044 -41.2615 80.515 -26.1915 34.3874 9.27978 46.4003 -22.5968 -91.7038 -16.9055 -0.174829 -3.49677 23.4206 3.81464 -3.14672 -0.716257 4.73302 0.398212 
-297.694 90.8324 -248.961 -114.551 53.4771 -72.2582 -173.282 23.9943 88.2529 -57.4175 20.1172 3.12506 69.2722 5.45399 3.43648 18.4108 -1.9523 -5.01396 171.14 1.98934 77.8025 -84.2104 0.815041 -6.43017 72.3647 -5.43798 -2.36989 20.8358 -2.97229 4.71304 0.95882 7.82683 -89.7867 11.2185 2.00771 0.227237 -0.451001 2.01577 0.138631 -22.9956 1.84657 0.820257 -2.98298 1.84655 0.820248 93.3536 -39.1092 -97.6013 16.6018 8.87317 -1.37824 -44.8129 21.8332 -117.417 0.864909 0.134213 6.33889 -84.9927 -37.8703 84.628 -40.2578 31.6128 31.3458 39.923 -28.8014 -101.547 -19.1704 0.431283 -7.73348 17.7299 -2.41819 -5.48626 1.12543 -0.643244 2.39507 
-290.929 94.502 -241.493 -118.587 53.8662 -68.3392 -175.106 16.5048 90.1243 -33.1396 23.3233 3.65694 53.1635 -2.02627 0.0373188 21.2279 -1.86621 -2.60574 171.417 -12.5988 80.3147 -66.6874 -9.99938 -8.23031 74.3091 -5.53319 0.344589 23.7556 -2.40244 4.81815 2.2128 7.63511 -90.0463 11.6226 4.37977 -0.547666 -0.0410135 4.35141 -0.740277 -22.6357 4.34149 0.796571 -2.62305 4.34148 0.796573 95.3782 -29.1125 -96.052 18.6379 6.23696 0.611233 -43.9306 19.3361 -114.293 -4.84146 -0.611771 11.2773 -83.0096 -36.7408 87.9433 -35.554 31.0238 38.6447 35.2952 -31.7106 -109.17 -16.1285 0.391764 -8.21183 8.79308 -6.04419 -5.03876 1.4685 -4.72846 2.84602 
-281.661 96.3424 -231.802 -110.754 53.9837 -72.9837 -176.899 21.5494 92.646 -26.1784 34.1707 6.39302 54.5257 -1.82691 -0.511159 13.2476 -8.71755 4.6445 172.221 -8.61103 86.0623 -53.6725 -4.37542 -3.68964 73.1484 -5.2666 -1.15327 22.8215 -3.20925 6.54564 2.00904 7.06892 -90.1207 12.7563 3.93257 -0.707646 1.09103 3.89762 -0.880309 -21.492 3.96317 0.508894 -1.47933 3.96317 0.50888 95.08 -29.1911 -96.6197 17.413 -0.75849 2.12756 -44.1468 17.42 -108.867 -8.63296 -1.25953 12.5796 -83.7676 -37.3841 86.6817 -29.8095 26.8065 35.6773 33.8441 -29.9736 -111.027 -14.0621 0.147156 -6.45123 8.8315 -5.77111 -6.50013 -1.2453 -4.17322 4.22528 
-271.413 93.9608 -221.715 -108.903 50.3755 -76.0112 -176.002 30.9802 93.2263 -51.1284 34.6018 5.64607 62.5065 2.33504 4.75469 19.0134 -3.47881 -0.892126 173.283 0.657725 88.2272 -56.8013 0.98278 -2.1235 76.8648 -6.35791 -4.11766 32.2019 -1.83542 9.19055 0.97826 7.63648 -89.8718 11.602 2.00609 0.0478252 -0.067373 2.00624 -0.0405499 -22.614 1.89892 0.648746 -2.60134 1.89893 0.648745 94.1375 -34.3317 -97.2613 19.628 -4.52541 8.91398 -42.0157 14.3475 -102.868 -8.44679 -1.03949 9.81782 -88.8276 -42.5901 79.131 -15.4206 22.8114 20.831 33.4944 -28.172 -112.744 -11.5964 0.0183859 -5.49078 21.8897 -3.04081 -3.93597 -5.36014 -1.61833 -0.71906 
-261.499 90.8741 -211.243 -110.041 48.4152 -77.7903 -170.698 33.7588 92.9562 -78.2107 22.0309 3.78058 69.5012 5.88322 4.21008 20.9108 -1.90244 -2.94803 172.981 10.5971 87.0158 -63.5522 0.665879 -2.72071 85.1913 -9.08711 -1.60068 27.0232 -1.03366 2.46178 -0.232668 8.08525 -89.4116 10.7055 -0.192018 1.18599 -0.965919 -0.139647 1.19329 -23.4984 -0.539591 1.07347 -3.48572 -0.539569 1.07347 93.6751 -37.5825 -97.3781 28.5484 -13.8486 19.2482 -48.741 10.1694 -90.3905 -4.04389 -0.422582 7.04731 -89.0872 -42.3461 78.6692 1.7658 17.716 -1.60215 24.4967 -23.7215 -117.159 -12.4819 -0.0566491 -4.49525 24.8655 1.5456 -6.21825 -3.50204 3.66639 0.438237 
-253.496 90.3552 -203.084 -111.456 48.3219 -74.1523 -167.162 23.0793 99.5677 -90.4336 18.3971 5.48715 65.4287 3.74034 3.359 19.735 -1.73747 -4.43781 174.137 18.3471 91.3474 -65.0928 -2.62095 -1.82117 79.1523 -7.33627 -4.48951 22.5148 -1.84368 2.47351 -1.23374 8.18138 -89.492 10.5213 -2.22437 1.2095 -1.14844 -2.16898 1.30624 -23.6967 -2.4849 0.484787 -3.68409 -2.48491 0.484776 95.5486 -36.4727 -94.1786 42.1465 -14.495 35.3037 -56.6737 12.006 -89.4627 3.81589 0.162993 -0.0484098 -86.1179 -36.8509 82.4174 7.35637 5.12201 -16.6556 19.269 -17.9269 -119.215 -11.1192 0.0345518 -5.88409 22.4353 6.32393 -5.06583 0.14065 7.66814 -2.13169 
-247.231 93.9367 -195.191 -118.595 45.8271 -68.7886 -167.129 -3.67169 101.968 -78.8442 30.1979 9.45583 60.227 1.40099 4.56873 23.3521 -0.505788 -4.33749 175.921 14.3714 90.9876 -52.352 -2.33656 -1.86112 66.4778 -2.29848 -3.61383 18.6629 -2.86785 3.29123 -2.70082 8.40613 -89.2846 10.1035 -5.05626 1.83612 -1.55944 -4.97055 2.0573 -24.1717 -5.37371 0.227598 -4.15906 -5.37372 0.227588 98.9969 -31.5281 -88.2688 51.7798 -18.6051 46.5318 -55.7834 19.3225 -92.2525 6.21003 0.00412372 -4.43537 -85.512 -27.3864 81.4629 6.95423 2.12096 -17.0846 16.3549 -15.4972 -119.414 -8.01965 -0.113817 -3.54031 10.9918 12.7399 -3.08573 3.93853 13.0952 -0.327425 
-239.992 97.8381 -185.113 -116.607 49.4559 -68.4578 -170.786 -14.9689 93.6244 -58.692 31.6793 10.3264 63.8318 3.37645 5.53794 23.3178 -1.21249 -2.42962 178.108 13.2187 91.3698 -30.7885 -9.45389 -2.54649 55.5933 0.942318 1.07903 18.3104 -2.0906 1.13094 -2.8063 7.76671 -89.9144 11.3698 -5.5442 0.72716 -0.289635 -5.5068 0.971193 -22.9185 -5.50562 -0.977942 -2.90587 -5.50562 -0.977939 97.2288 -29.9601 -92.0781 46.8544 -5.97805 54.5291 -44.6728 20.5056 -101.607 5.37673 -0.106526 -6.43424 -83.5322 -22.8651 84.5654 6.855 14.7364 -26.2402 25.4681 -22.9075 -114.625 -10.8647 -0.260327 -1.84987 3.2042 15.6046 3.23058 2.07438 14.816 0.182977 
-230.793 97.2809 -173.05 -108.595 54.0507 -73.1228 -173.982 -7.11633 88.965 -50.4393 26.6479 8.37543 66.2419 3.83111 2.07897 32.8954 2.31372 -2.83805 179.598 23.9153 91.599 -43.4512 -7.86533 -3.45105 65.4557 -2.28969 0.681146 19.7662 -1.92678 1.37333 -2.02925 7.25557 -90.637 12.3527 -4.33481 -0.783735 0.688829 -4.36506 -0.591845 -21.8935 -3.89867 -2.0521 -1.88088 -3.89866 -2.05211 95.5285 -34.7307 -94.4907 37.1189 2.08705 47.8291 -41.5983 19.4162 -108.905 1.99184 0.0176688 -3.55728 -85.3259 -30.6978 82.647 3.75231 18.0783 -20.1915 25.0483 -25.1907 -119.353 -8.12482 -0.0968498 -3.89699 8.02246 15.1725 5.11409 1.88829 13.8089 -1.16436 
